<?xml version="1.0" standalone="no"?>
<!DOCTYPE svg PUBLIC "-//W3C//DTD SVG 20010904//EN"
 "http://www.w3.org/TR/2001/REC-SVG-20010904/DTD/svg10.dtd">
<svg version="1.0" xmlns="http://www.w3.org/2000/svg"
 width="250.000000pt" height="90.000000pt" viewBox="0 0 250.000000 90.000000"
 preserveAspectRatio="xMidYMid meet">

<g transform="translate(0.000000,90.000000) scale(0.100000,-0.100000)"
fill="#000000" stroke="none">
<path d="M483 822 c-103 -37 -181 -109 -222 -206 -32 -73 -30 -75 46 -78 55
-2 68 -6 71 -20 3 -15 -9 -18 -100 -20 -131 -4 -132 -21 -1 -28 82 -4 98 -8
101 -22 3 -15 -7 -18 -75 -20 -43 -2 -78 -7 -78 -13 0 -5 34 -12 75 -15 61 -4
75 -8 78 -22 3 -16 -5 -18 -56 -18 -32 0 -61 -3 -65 -6 -13 -13 43 -101 92
-147 80 -74 127 -92 246 -92 95 0 103 2 163 34 70 38 120 90 160 166 24 45 27
61 27 155 0 93 -3 112 -27 162 -34 72 -104 143 -174 175 -75 34 -189 41 -261
15z m397 -191 c11 -21 14 -298 4 -325 -5 -14 -35 -16 -234 -16 -199 0 -229 2
-234 16 -12 31 -7 319 6 332 9 9 74 12 230 12 205 0 218 -1 228 -19z"/>
<path d="M507 611 c-6 -2 -22 -15 -34 -28 -21 -21 -23 -34 -23 -116 1 -88 2
-93 30 -121 l29 -29 148 8 c139 6 149 8 170 31 20 22 23 35 23 114 0 81 -2 91
-25 116 -25 26 -26 27 -165 28 -77 0 -146 -1 -153 -3z m297 -46 c22 -34 22
-156 0 -190 -16 -25 -19 -25 -153 -25 -124 0 -138 2 -154 20 -23 28 -24 160
-1 195 16 25 19 25 154 25 135 0 138 0 154 -25z"/>
<path d="M590 545 c0 -8 9 -15 19 -15 27 0 36 -18 11 -22 -28 -4 -30 -22 -2
-26 27 -4 29 -22 2 -22 -11 0 -20 -6 -20 -13 0 -16 52 -67 68 -67 17 0 15 21
-4 34 -14 11 -14 15 2 49 10 20 24 37 31 37 17 0 17 17 1 23 -10 4 -10 6 0 6
6 1 12 8 12 16 0 12 -13 15 -60 15 -47 0 -60 -3 -60 -15z"/>
<path d="M1050 630 l0 -110 25 0 c23 0 25 4 25 45 0 45 0 45 35 45 24 0 35 5
35 15 0 10 -11 15 -35 15 -32 0 -35 2 -35 30 0 29 2 30 45 30 38 0 45 3 45 20
0 18 -7 20 -70 20 l-70 0 0 -110z"/>
<path d="M1230 639 c-19 -56 -36 -106 -38 -111 -2 -4 8 -8 21 -8 17 0 28 7 32
20 5 15 15 20 45 20 29 0 42 -5 50 -20 6 -12 21 -20 35 -20 l24 0 -38 108
c-36 100 -40 107 -67 110 -28 3 -30 0 -64 -99z m84 -16 c6 -20 4 -23 -18 -23
-29 0 -31 6 -15 47 11 30 19 24 33 -24z"/>
<path d="M1390 720 c0 -16 7 -20 30 -20 l30 0 0 -90 c0 -89 0 -90 25 -90 25 0
25 1 25 90 l0 90 30 0 c23 0 30 4 30 20 0 18 -7 20 -85 20 -78 0 -85 -2 -85
-20z"/>
<path d="M1621 717 c-5 -13 -23 -63 -40 -111 l-30 -86 22 0 c12 0 28 9 35 20
9 14 23 20 51 20 31 0 41 -4 46 -20 4 -13 15 -20 31 -20 13 0 24 1 24 3 0 1
-17 49 -38 107 -34 96 -39 105 -65 108 -21 3 -29 -2 -36 -21z m54 -89 c6 -25
5 -28 -19 -28 -29 0 -31 7 -14 45 13 29 23 23 33 -17z"/>
<path d="M1790 630 c0 -110 0 -110 24 -110 22 0 25 5 28 43 3 39 5 42 36 45
46 5 43 32 -3 32 -32 0 -35 2 -35 30 0 29 2 30 45 30 38 0 45 3 45 20 0 18 -7
20 -70 20 l-70 0 0 -110z"/>
<path d="M1970 643 c-18 -54 -35 -104 -38 -110 -3 -8 5 -13 21 -13 17 0 28 7
32 20 5 16 15 20 47 20 31 0 41 -4 45 -20 3 -13 14 -20 29 -20 13 0 24 2 24 5
0 3 -16 52 -36 110 -34 99 -38 105 -64 105 -25 0 -29 -6 -60 -97z m77 -8 c11
-34 11 -35 -17 -35 -28 0 -28 1 -17 35 6 19 13 35 17 35 4 0 11 -16 17 -35z"/>
<path d="M2130 721 c0 -14 8 -21 28 -23 27 -3 27 -3 30 -90 3 -80 5 -88 22
-88 18 0 20 7 20 90 l0 90 30 0 c23 0 30 4 30 20 0 18 -7 20 -80 20 -72 0 -80
-2 -80 -19z"/>
<path d="M1341 408 c-111 -58 -107 -220 6 -270 109 -48 217 20 217 137 0 120
-116 189 -223 133z m120 -51 c47 -36 52 -105 10 -148 -47 -47 -112 -34 -137
27 -28 66 14 134 81 134 16 0 37 -6 46 -13z"/>
<path d="M1060 275 l0 -145 85 0 c84 0 85 0 85 25 0 24 -3 25 -55 25 l-55 0 0
120 0 120 -30 0 -30 0 0 -145z"/>
<path d="M1646 288 c-27 -73 -51 -139 -54 -146 -3 -8 6 -12 27 -12 24 0 34 6
43 25 10 23 17 25 70 25 53 0 59 -2 68 -25 7 -19 17 -25 40 -25 16 0 30 4 30
10 0 5 -23 71 -51 145 l-52 135 -36 0 -36 0 -49 -132z m107 -3 l16 -45 -35 0
c-19 0 -34 5 -34 12 0 19 23 78 31 78 4 0 14 -20 22 -45z"/>
<path d="M1920 275 l0 -145 30 0 29 0 3 92 3 91 60 -91 c58 -87 62 -91 98 -91
l37 -1 0 145 0 145 -35 0 -35 0 0 -92 0 -93 -61 93 c-58 86 -64 92 -95 92
l-34 0 0 -145z"/>
</g>
</svg>
